inDegrees=no
num_controls=7
num_derivatives=13
num_iterations=113
num_multipliers=7
num_parameters=0
num_slacks=7
num_states=26
objective=0.447620
objective_accelerations=0.054255
objective_balance=0.003085
objective_effort=0.021050
objective_height=0.363690
objective_ligament=0.005540
solver_duration=1711.383624
status=Solve_Succeeded
success=true
DataType=double
version=3
OpenSimVersion=4.5
endheader
time	/jointset/ground_pelvis/pelvis_tilt/value	/jointset/ground_pelvis/pelvis_tx/value	/jointset/ground_pelvis/pelvis_ty/value	/jointset/hip_l/hip_flexion_l/value	/jointset/hip_l/hip_adduction_l/value	/jointset/hip_l/hip_rotation_l/value	/jointset/back/lumbar_extension/value	/jointset/patellofemoral_l/patellar_flexion_l/value	/jointset/knee_l/knee_flexion_l/value	/jointset/knee_l/knee_adduction_l/value	/jointset/knee_l/knee_rotation_l/value	/jointset/ankle_l/ankle_angle_l/value	/jointset/subtalar_l/subtalar_angle_l/value	/jointset/ground_pelvis/pelvis_tilt/speed	/jointset/ground_pelvis/pelvis_tx/speed	/jointset/ground_pelvis/pelvis_ty/speed	/jointset/hip_l/hip_flexion_l/speed	/jointset/hip_l/hip_adduction_l/speed	/jointset/hip_l/hip_rotation_l/speed	/jointset/back/lumbar_extension/speed	/jointset/patellofemoral_l/patellar_flexion_l/speed	/jointset/knee_l/knee_flexion_l/speed	/jointset/knee_l/knee_adduction_l/speed	/jointset/knee_l/knee_rotation_l/speed	/jointset/ankle_l/ankle_angle_l/speed	/jointset/subtalar_l/subtalar_angle_l/speed	/forceset/tau_hip_flexion_l	/forceset/tau_hip_adduction_l	/forceset/tau_hip_rotation_l	/forceset/tau_knee_flexion_l	/forceset/tau_ankle_angle_l	/forceset/tau_subtalar_angle_l	/forceset/tau_lumbar_extension	lambda_cid13_p0	lambda_cid13_p1	lambda_cid13_p2	lambda_cid13_p3	lambda_cid13_p4	lambda_cid13_p5	lambda_cid14_p0	/jointset/ground_pelvis/pelvis_tilt/accel	/jointset/ground_pelvis/pelvis_tx/accel	/jointset/ground_pelvis/pelvis_ty/accel	/jointset/hip_l/hip_flexion_l/accel	/jointset/hip_l/hip_adduction_l/accel	/jointset/hip_l/hip_rotation_l/accel	/jointset/back/lumbar_extension/accel	/jointset/patellofemoral_l/patellar_flexion_l/accel	/jointset/knee_l/knee_flexion_l/accel	/jointset/knee_l/knee_adduction_l/accel	/jointset/knee_l/knee_rotation_l/accel	/jointset/ankle_l/ankle_angle_l/accel	/jointset/subtalar_l/subtalar_angle_l/accel	gamma_cid13_p0	gamma_cid13_p1	gamma_cid13_p2	gamma_cid13_p3	gamma_cid13_p4	gamma_cid13_p5	gamma_cid14_p0
1.5	-0.330031772278825	-0.005439116976283523	0.7727706468743799	1.027295551255681	-0.4355341059638422	-0.2189836693146471	-0.2211024117707414	0.7876962903928092	0.7876962903928592	-0.1354308204187006	-0.1443801745389743	0.1501580384586141	-0.007405418566226796	0.5836994242398772	0.2364350740622173	0.4897540106102864	-2.252534606755772	0.2185173192486408	-0.70181016331941	0.3251815577866263	-1.97552172666078	-1.975521726660721	-0.1158321947387888	0.1361288897850294	-0.4653329917555594	0.008323667304183924	-0.1561249665772235	0.02532989839254594	-0.008118315709495246	-0.2085860630015168	0.02867364446969457	0.04395604665237203	0.1558183868166714	-22.86134736111184	-18.43262791337568	6.423968512729577	-6.325516305827372	-521.6260824589946	-67.12823013825516	-25.73192058054119	0.5441322671845963	0.6169048794935774	-0.4895073343749377	-1.153396130593799	0.6643585127482132	-0.1300989401446812	1.367705933557255	-1.264346457248199	-1.264346457248079	0.0773176536207144	0.2241952210359554	-0.4595902568751437	0.4910530695169725	3.853790924114305e-07	9.778854693163864e-07	-1.733669428852585e-06	8.695055324016322e-08	5.222239303877014e-07	2.957500133316237e-07	3.632148660533144e-07
1.51	-0.3241676582581036	-0.003044204919986506	0.7776427306980324	1.004714271915718	-0.4333170924624356	-0.2260071557825104	-0.2177834295767399	0.7678801440577998	0.7678801440577929	-0.1365879789910847	-0.143008959342052	0.1454819439223545	-0.00729929022116863	0.5890380468257196	0.2425112515269248	0.4845584785397999	-2.263395512227271	0.2248646223541441	-0.7027974581236398	0.3385711598016667	-1.987427920493971	-1.987427920494082	-0.1155845531036987	0.1380954053074643	-0.4698151124045163	0.01290786728044404	-0.1507872015560462	0.02434394038415195	-0.007786708009429227	-0.2055568859804179	0.02888946277702695	0.04336002212439735	0.1514009557703922	-22.60421834505329	-18.21273298705754	6.381985437565879	-6.149295659053913	-518.0407165582241	-67.30514045625272	-26.62136564095681	0.5159475164729761	0.5975867975983353	-0.5501088428281277	-1.003547139611906	0.6168760434573863	-0.06925870475527976	1.318029153674313	-1.111885828597853	-1.111885828623461	0.0008579847894462141	0.1797318237964683	-0.431866695585869	0.4429868204258103	3.882633570466026e-07	1.095070652779284e-06	-1.652755653141327e-06	1.136081806767576e-07	5.360602777144219e-07	3.561163210305281e-07	3.642588710523527e-07
1.52	-0.3182527139590854	-0.0005896085655146171	0.7824597526610915	0.982034161644203	-0.4310372139631726	-0.233037757989256	-0.2143318629989484	0.7479533097880079	0.7479533097879458	-0.1377421870338428	-0.1416187085687236	0.140763159434269	-0.007147143204598794	0.593865479899119	0.2483719336971915	0.4787416384916109	-2.27230079306613	0.231090318819889	-0.7032333110955966	0.3516984345445821	-1.997659313616893	-1.997659313617176	-0.115242088815158	0.1399360050678677	-0.4738709821206694	0.01752740160651523	-0.1454494365348758	0.02335798237575231	-0.007455100309303316	-0.2025277089593249	0.02910528108435733	0.04276399759641367	0.1469835247241093	-22.34940343847887	-17.99560611145099	6.344069297471592	-6.009701756507619	-514.5122745245086	-67.53039982193798	-27.51107623196643	0.4418943646960159	0.5738058206053932	-0.613768929915439	-0.7622712040659396	0.6400371847965614	-0.01981057369010138	1.315240479132239	-0.9293863151944984	-0.9293863151944985	0.09628218431084883	0.199012068629663	-0.3743400703143882	0.4981199394791861	3.910725391047796e-07	1.221774208205922e-06	-1.573458600191958e-06	1.404326169422995e-07	5.518949327187283e-07	4.143347465525249e-07	3.662965099477324e-07
1.53	-0.3122920120455493	0.001922489429540785	0.7872155909758907	0.959274587377366	-0.428695799626389	-0.2400703374306326	-0.2107505551752875	0.7279325317440762	0.7279325317440259	-0.1388924832643906	-0.1402109561393004	0.1360059879243553	-0.006948715945639964	0.5981849523496272	0.2540081715657126	0.4723287222760371	-2.279285522310214	0.2371634257928291	-0.7031814713322798	0.3645071732079724	-2.006206181259324	-2.006206181259468	-0.1148144496338202	0.1416015239938197	-0.47748267874136	0.02216006729893602	-0.1399939659926727	0.02220940570942574	-0.007142302692729588	-0.1998204490888773	0.02968459442550192	0.04196023584684457	0.1424626010267689	-21.99507822695886	-17.69925199381648	6.28617595883703	-5.880825183330063	-511.1427915316614	-67.61760625589424	-28.40149408841233	0.4134912134794491	0.5526450856920091	-0.6695324028876408	-0.6172749269315845	0.5865946007314535	0.03319119538352606	1.255297012999431	-0.773894111424742	-0.7738941114040717	0.01658244177428989	0.1480661837750973	-0.3424402384557939	0.4460833697533109	3.938019459248993e-07	1.358591033844032e-06	-1.495879315177093e-06	1.674342875885981e-07	5.698527896304695e-07	4.702710472615573e-07	3.693898848579748e-07
1.54	-0.3062908119018574	0.0044897722664247	0.7919044042414323	0.9364550255896181	-0.4262945247904382	-0.2470992964855683	-0.2070428386743812	0.7078349735991877	0.7078349735991523	-0.1400383875717753	-0.1387869996447823	0.1312151282921326	-0.006703913332630964	0.6019651259301836	0.2594089020628941	0.4653366286400939	-2.284298297248377	0.2430624186533185	-0.7025092338073246	0.3769801699936429	-2.01301533380805	-2.013015333808057	-0.1143637041833211	0.143176818087657	-0.4806086065824265	0.02680247241654821	-0.1345384954504717	0.02106082904309668	-0.006829505076127253	-0.1971131892184325	0.03026390776664563	0.04115647409727161	0.137941677329428	-21.64138309465961	-17.4063855050065	6.232949396726337	-5.79316477593421	-507.8033660488395	-67.75010544001702	-29.29370035941362	0.3340345907056144	0.5267043463374576	-0.7296044139893327	-0.3678803428818162	0.6052143623063937	0.1042689786376192	1.248092103588286	-0.5818432964536215	-0.5818432964536446	0.1009034381431133	0.1809671022067082	-0.277186314389565	0.5000678245174639	3.793890223671742e-07	1.500582253474489e-06	-1.346147232704171e-06	2.083910032946141e-07	5.534121231154806e-07	5.096674782125024e-07	3.644823063522058e-07
1.55	-0.3002545852141347	0.007109816287343291	0.7965204518503222	0.9135953643415128	-0.4238351420461453	-0.2541190757327231	-0.2032121814131914	0.6876782468563831	0.6876782468563607	-0.1411791941649717	-0.1373481932690837	0.126395537215478	-0.006412567203857874	0.6051852337700889	0.2645523751823732	0.457783514101738	-2.28729874424894	0.2487759639693478	-0.7013330860288837	0.3890770543694064	-2.018034575766772	-2.018034575767043	-0.1138102089029263	0.1445782692899699	-0.4832288847254841	0.03145878199030873	-0.1290187044915869	0.01960000403477124	-0.006537086181074227	-0.1945953764501049	0.03085355941715572	0.04034199625757832	0.1333436221464694	-21.29787290903608	-17.10747557586708	6.179208282029086	-5.625960134741591	-504.6290503988777	-67.93216738609706	-30.18676753750611	0.3017454820226285	0.5010991765133817	-0.781478591924001	-0.2158474012751964	0.548613541970298	0.1416291635883228	1.179352423335829	-0.4177172993289774	-0.4177172993687432	0.0309225046923322	0.1185753135196902	-0.2422801899325905	0.4470554542198751	3.452251529393248e-07	1.648535274878734e-06	-1.11328257924697e-06	2.654263578737819e-07	4.973383752610001e-07	5.300071027030436e-07	3.503562380410329e-07
1.56	-0.2941890081277345	0.009779881115808719	0.8010583055901955	0.8907157545188756	-0.4213197860635481	-0.261123625204866	-0.1992627821444908	0.66748017716324	0.6674801771632308	-0.142314795819016	-0.1358956041445142	0.1215521770322588	-0.006074929393264276	0.6078352056655797	0.2694130635722616	0.449697854836773	-2.288288012154769	0.2542570663141419	-0.6994632788048031	0.4007285714957875	-2.021283923875397	-2.021283923875933	-0.1133227163543454	0.1459333678633273	-0.4853624278952907	0.03606080878065036	-0.1234989135327053	0.018139179026442	-0.006244667285972985	-0.1920775636817825	0.03144321106766424	0.03952751841787894	0.12874556696351	-20.95978714119707	-16.81057510458433	6.129168569184875	-5.478790319334269	-501.5504391071824	-68.16333755883848	-31.06606891093054	0.2200074018226789	0.4701474004193281	-0.8361133593111083	0.0343554760649863	0.5587257680593372	0.2430008677656037	1.159018653711787	-0.2278645264343198	-0.2278645264343201	0.08770289178033842	0.1716965764155899	-0.1798393197393491	0.4892112678336832	3.129712269475739e-07	1.76998641938048e-06	-9.086261739978922e-07	3.120527493910667e-07	4.487711005942236e-07	5.439433356330464e-07	3.360110352389699e-07
